<svg width="2191" height="322" viewBox="0 0 2191 322" fill="none" xmlns="http://www.w3.org/2000/svg"><path fill-rule="evenodd" clip-rule="evenodd" d="M36.756 15c-19.882 0-36 16.118-36 36v216c0 19.882 16.118 36 36 36h184v-88c0-22.091 17.908-40 40-40h88V51c0-19.882-16.118-36-36-36h-276z" fill="url(#paint0_linear_5565_134562)"/><path fill-rule="evenodd" clip-rule="evenodd" d="M36.756 15c-19.882 0-36 16.118-36 36v216c0 19.882 16.118 36 36 36h184v-88c0-22.091 17.908-40 40-40h88V51c0-19.882-16.118-36-36-36h-276z" fill="url(#paint1_radial_5565_134562)"/><path fill-rule="evenodd" clip-rule="evenodd" d="M36.756 15h276c19.882 0 36 16.118 36 36v124h-74V86c0-15.464-12.536-28-28-28h-246v-7c0-19.882 16.118-36 36-36z" fill="url(#paint2_linear_5565_134562)"/><path fill-rule="evenodd" clip-rule="evenodd" d="M230.756 188.541a39.847 39.847 0 00-10 26.459v88h-62v-16.749a36.005 36.005 0 018.599-23.35l63.401-74.401v.041z" fill="#BFD8FF"/><path d="M255.756 257.298h12.659a9.69 9.69 0 009.916 7.437c5.72 0 9.487-3.158 9.487-7.77s-3.933-7.188-11.717-7.188h-5.041v-10.415h4.363c7.52 0 10.595-2.77 10.595-6.925 0-4.155-3.338-7.008-7.95-7.008a7.938 7.938 0 00-8.379 7.257h-12.133c.429-7.257 6.15-17.686 20.512-17.686 11.537 0 19.487 6.578 19.487 15.802a13.932 13.932 0 01-9.695 13.338v.166a13.966 13.966 0 0111.454 14.196c0 10-9.155 16.62-21.025 16.62-12.617.042-21.591-7.132-22.533-17.824zM321.424 215.941h9.224v58.281h-11.883v-44.694l-11.454 7.771v-11.787l14.113-9.571zM1245.08 236.781a84.274 84.274 0 01-31.85-32.058 95.45 95.45 0 01-11.53-45.487 95.444 95.444 0 0111.53-45.486 84.193 84.193 0 0131.85-32.058 89.285 89.285 0 0145.41-11.683 91.971 91.971 0 0137.69 7.694 75.526 75.526 0 0128.03 20.944 74.017 74.017 0 0115.25 31.203h-33.52a47.75 47.75 0 00-17.81-20.802 57.608 57.608 0 00-28.82-7.872 57.57 57.57 0 00-28.88 7.623 54.614 54.614 0 00-20.06 20.908 63.484 63.484 0 000 59.379 53.976 53.976 0 0020.16 20.859 53.99 53.99 0 0028.04 7.423 52.918 52.918 0 0029.56-7.837 47.869 47.869 0 0017.81-20.837h33.52a74.544 74.544 0 01-15.31 31.425 74.532 74.532 0 01-27.97 20.972 92.022 92.022 0 01-37.69 7.48 89.615 89.615 0 01-45.41-11.79zM1474.33 131.487a55.11 55.11 0 0122.44 21.799 65.3 65.3 0 018.12 32.984v59.378h-28.5l-2.03-17.81a39.886 39.886 0 01-15.7 15.245 47.406 47.406 0 01-22.84 5.308 54.867 54.867 0 01-28.81-7.837 55.909 55.909 0 01-20.66-22.084 67.587 67.587 0 01-7.62-32.485 61.74 61.74 0 018.26-31.702 59.168 59.168 0 0122.69-22.333 64.68 64.68 0 0132.31-7.944 67.675 67.675 0 0132.34 7.481zm-10.44 79.895c6.18-5.913 9.26-14.367 9.26-25.362.4-9.09-2.8-17.97-8.9-24.72a29.194 29.194 0 00-10.12-7.177 29.17 29.17 0 00-12.18-2.333 29.57 29.57 0 00-12.28 2.376 29.7 29.7 0 00-10.2 7.241 38.528 38.528 0 00-8.95 24.685c0 9.023 3.17 17.759 8.95 24.684a29.577 29.577 0 0010.24 7.139 29.534 29.534 0 0012.28 2.265 30.585 30.585 0 0021.9-8.798zM1557.93 245.65h-32.06V72.61h32.06v173.04zM1695.17 196.923h-90.08a32.01 32.01 0 0010.93 18.415 30.781 30.781 0 0019.77 6.483c5.73.216 11.43-.779 16.74-2.921 4.22-1.93 7.7-5.181 9.91-9.261h29.7a48.989 48.989 0 01-20.8 28.781 62.47 62.47 0 01-34.76 10.009 64.135 64.135 0 01-32.35-7.979 55.663 55.663 0 01-21.83-22.191 66.184 66.184 0 01-7.73-32.058 65.055 65.055 0 017.83-32.058 57.003 57.003 0 0121.84-22.191 62.039 62.039 0 0131.45-7.943 59.089 59.089 0 0130.71 8.121 57.268 57.268 0 0121.37 22.334 65.242 65.242 0 017.73 31.702 96.58 96.58 0 01-.43 10.757zm-79.4-39.823a32.034 32.034 0 00-10.93 17.525h60.55a26.878 26.878 0 00-9.79-17.276 30.12 30.12 0 00-19.92-6.839 30.782 30.782 0 00-19.91 6.59zM1707.35 177.901a53.67 53.67 0 013.41-21.104 53.52 53.52 0 0111.41-18.078c9.9-9.808 23.55-14.711 40.93-14.711s31 4.987 40.85 14.96a53.375 53.375 0 0111.36 18.091 53.398 53.398 0 013.35 21.091v67.678h-32.05V180.43a32.927 32.927 0 00-5.7-20.802 24.58 24.58 0 00-8.06-5.538 24.48 24.48 0 00-19.15 0 24.58 24.58 0 00-8.06 5.538 32.7 32.7 0 00-5.98 20.908v65.22h-32.06l-.25-67.855zM1923.39 72.61h32.05v173.04h-29.17l-2.24-18.344a38.528 38.528 0 01-15.35 15.495 48.3 48.3 0 01-23.73 5.557 52.277 52.277 0 01-26.53-7.124 52.983 52.983 0 01-20.27-21.372 69.383 69.383 0 01-7.77-33.732 68.956 68.956 0 017.77-33.625 53.393 53.393 0 0120.27-21.372 52.624 52.624 0 0126.53-7.124 49.845 49.845 0 0123.08 5.093 35.683 35.683 0 0115.36 14.32V72.609zm-8.87 138.667a34.141 34.141 0 007-11.724 34.195 34.195 0 001.87-13.53c0-10.829-3-19.14-8.98-24.934a30.716 30.716 0 00-10.04-6.616 30.649 30.649 0 00-23.57.213 30.743 30.743 0 00-9.92 6.795 34.402 34.402 0 00-6.9 11.475 34.306 34.306 0 00-1.97 13.245 34.639 34.639 0 008.87 24.934 29.79 29.79 0 0010.18 7.008 29.696 29.696 0 0012.16 2.253c3.98.026 7.93-.77 11.6-2.339a29.114 29.114 0 009.7-6.78zM2066.47 131.487a55.11 55.11 0 0122.44 21.799 65.3 65.3 0 018.12 32.984v59.378h-28.49l-2.03-17.81a40.249 40.249 0 01-15.75 15.245 47.273 47.273 0 01-22.83 5.308 54.68 54.68 0 01-28.78-7.837 55.767 55.767 0 01-20.69-22.084 67.839 67.839 0 01-7.63-32.485 61.847 61.847 0 018.27-31.702 59.336 59.336 0 0122.65-22.298 64.694 64.694 0 0132.38-7.979 67.675 67.675 0 0132.34 7.481zm-10.4 79.895c6.17-5.913 9.26-14.367 9.26-25.362a34.743 34.743 0 00-8.87-24.72 31.032 31.032 0 00-10.21-7.071 31.008 31.008 0 00-24.35 0 31.032 31.032 0 00-10.21 7.071 38.528 38.528 0 00-8.94 24.685c0 9.021 3.16 17.756 8.94 24.684a29.421 29.421 0 0010.19 7.182 29.517 29.517 0 0012.25 2.329c4.06.066 8.09-.678 11.86-2.189a30.612 30.612 0 0010.08-6.609zM2113.03 175.373a53.08 53.08 0 0113.07-37.116c8.69-9.498 21.07-14.248 37.15-14.248 5.38-.036 10.75.561 15.99 1.781v28.924c-2.52 0-5.41-.25-8.62-.25-8.78 0-15.21 2.031-19.27 6.091a25.348 25.348 0 00-4.91 8.648 25.421 25.421 0 00-1.18 9.875v66.715h-32.06l-.17-70.42z" fill="#6D4AFF"/><path d="M544.687 72.18h-79.931v173.147h31.666V202.37a15.816 15.816 0 0115.815-15.815h32.45a56.992 56.992 0 0056.991-56.992 56.985 56.985 0 00-35.091-53.008 56.988 56.988 0 00-21.9-4.375zm24.934 56.991a26.999 26.999 0 01-27.072 26.893h-46.305v-54.106h46.305a27.026 27.026 0 0119.117 7.918 27.04 27.04 0 017.919 19.117l.036.178zM606.665 245.329v-68.675c0-28.033 16.385-50.366 49.12-50.366a62.805 62.805 0 0115.637 1.745v28.282c-3.74-.249-7.124-.249-8.442-.249-17.347 0-24.934 7.908-24.934 24.043v65.22h-31.381zM680.826 187.056c0-34.48 26.038-60.767 62.264-60.767 36.225 0 62.227 26.216 62.227 60.767 0 34.552-26.038 61.017-62.227 61.017-36.19 0-62.264-26.537-62.264-61.017zm93.502 0c0-19.59-13.143-33.482-31.238-33.482s-31.275 13.892-31.275 33.482c0 19.591 13.144 33.483 31.275 33.483 18.13 0 31.238-13.642 31.238-33.483zM896.575 153.819h-33.946v43.385c0 15.139 5.45 22.085 21.051 22.085 1.496 0 5.237 0 9.938-.25v25.54a68.187 68.187 0 01-18.344 2.742c-26.287 0-44.168-15.886-44.168-45.878v-47.624h-21.052v-24.933h5.236a15.815 15.815 0 0015.816-15.816V89.348h31.523v39.431h33.946v25.04zM906.013 187.056c0-34.48 26.038-60.767 62.228-60.767 36.189 0 62.259 26.216 62.259 60.767 0 34.552-26.03 61.017-62.259 61.017-36.225 0-62.228-26.537-62.228-61.017zm93.502 0c0-19.59-13.143-33.482-31.274-33.482-18.13 0-31.239 13.892-31.239 33.482 0 19.591 13.144 33.483 31.239 33.483s31.274-13.642 31.274-33.483zM1046.85 245.33v-66.217c0-30.74 19.6-52.824 54.57-52.824 34.98 0 54.32 22.084 54.32 52.824v66.217h-31.23v-63.723c0-17.134-7.7-27.784-23.09-27.784-15.38 0-23.04 10.686-23.04 27.784v63.723h-31.53z" fill="#1B1340"/><defs><linearGradient id="paint0_linear_5565_134562" x1="174.756" y1="-100.063" x2="198.461" y2="236.668" gradientUnits="userSpaceOnUse"><stop offset=".989" stop-color="#6D4AFF"/></linearGradient><linearGradient id="paint2_linear_5565_134562" x1="348.756" y1="171.5" x2="131.178" y2="-128.565" gradientUnits="userSpaceOnUse"><stop stop-color="#C8E8FF"/><stop offset=".308" stop-color="#BDAEFF"/><stop offset="1" stop-color="#6D4AFF"/></linearGradient><radialGradient id="paint1_radial_5565_134562" cx="0" cy="0" r="1" gradientUnits="userSpaceOnUse" gradientTransform="rotate(110.421 164.731 16.59) scale(497.251 662.619)"><stop offset=".556" stop-color="#54B7FF" stop-opacity="0"/><stop offset=".994" stop-color="#54B7FF"/></radialGradient></defs></svg>