<svg width="1724" height="322" viewBox="0 0 1724 322" fill="none" xmlns="http://www.w3.org/2000/svg">
<path d="M0 266V50C0 30.1178 16.1178 14 36 14H103.514C110.327 14 116.961 16.1739 122.452 20.2054L145.048 36.7946C150.539 40.8261 157.173 43 163.986 43H312C331.882 43 348 59.1177 348 79V266C348 285.882 331.882 302 312 302H36C16.1177 302 0 285.882 0 266Z" fill="url(#paint0_linear_5565_134599)"/>
<path d="M0 266V50C0 30.1178 16.1178 14 36 14H103.514C110.327 14 116.961 16.1739 122.452 20.2054L145.048 36.7946C150.539 40.8261 157.173 43 163.986 43H312C331.882 43 348 59.1177 348 79V266C348 285.882 331.882 302 312 302H36C16.1177 302 0 285.882 0 266Z" fill="url(#paint1_radial_5565_134599)"/>
<path fill-rule="evenodd" clip-rule="evenodd" d="M163.986 43H312C331.882 43 348 59.1172 348 79V266C348 285.883 331.882 302 312 302H274V114.162C274 98.6347 261.365 86.0728 245.839 86.1622L109.529 86.9473C103.659 86.9824 97.9258 85.1699 93.1413 81.7676L62.7861 60.1816C58.0466 56.8105 52.3752 55 46.5595 55H0V50C0 30.1172 16.1178 14 36 14H103.514C110.327 14 116.961 16.1738 122.452 20.2051L145.048 36.7949C150.539 40.8262 157.173 43 163.986 43Z" fill="url(#paint2_linear_5565_134599)"/>
<path d="M1311.36 83.9763C1324.57 91.2819 1335.53 102.056 1343.06 115.135C1350.52 128.535 1354.44 143.618 1354.44 158.956C1354.44 174.294 1350.52 189.378 1343.06 202.777C1335.57 215.94 1324.6 226.793 1311.36 234.149C1297.21 241.915 1281.27 245.839 1265.13 245.531H1208.21V72.5586H1265.13C1281.27 72.2621 1297.21 76.1985 1311.36 83.9763ZM1267.05 214.693C1276.69 214.871 1286.21 212.389 1294.54 207.521C1302.87 202.652 1309.7 195.584 1314.28 187.091C1318.86 178.426 1321.25 168.774 1321.25 158.974C1321.25 149.174 1318.86 139.521 1314.28 130.856C1309.79 122.57 1303.14 115.651 1295.04 110.831C1286.56 105.844 1276.88 103.296 1267.05 103.468H1240.69V214.444L1267.05 214.693Z" fill="#6D4AFF"/>
<path d="M1368.63 175.176C1368.07 161.605 1372.74 148.338 1381.68 138.113C1390.46 128.627 1402.82 123.885 1418.78 123.885C1424.16 123.848 1429.52 124.445 1434.75 125.663V154.546C1432.23 154.546 1429.35 154.297 1426.15 154.297C1417.35 154.297 1410.92 156.324 1406.87 160.379C1404.68 162.903 1403.01 165.838 1401.96 169.014C1400.92 172.19 1400.52 175.542 1400.79 178.875V245.496H1368.77L1368.63 175.176Z" fill="#6D4AFF"/>
<path d="M1447.81 101.579C1445.89 99.8309 1444.37 97.6973 1443.34 95.3186C1442.31 92.9398 1441.8 90.3699 1441.83 87.778C1441.8 85.1661 1442.32 82.5771 1443.35 80.1763C1444.38 77.7754 1445.9 75.6156 1447.81 73.8349C1449.67 71.9569 1451.88 70.4725 1454.33 69.4703C1456.77 68.4681 1459.39 67.9685 1462.04 68.0015C1464.65 67.9783 1467.24 68.4829 1469.66 69.4853C1472.07 70.4876 1474.26 71.9671 1476.09 73.8349C1478 75.6156 1479.52 77.7754 1480.54 80.1763C1481.57 82.5771 1482.09 85.1661 1482.06 87.778C1482.1 90.3699 1481.58 92.9398 1480.55 95.3186C1479.52 97.6973 1478 99.8309 1476.09 101.579C1474.24 103.414 1472.05 104.863 1469.63 105.841C1467.22 106.818 1464.64 107.304 1462.04 107.27C1459.41 107.312 1456.79 106.83 1454.35 105.853C1451.91 104.876 1449.68 103.423 1447.81 101.579ZM1478.08 245.349H1446.07V126.264H1478.08V245.349Z" fill="#6D4AFF"/>
<path d="M1529.51 245.351L1484.16 126.266H1517.84L1538.62 187.089C1541.82 197.76 1543.7 204.127 1544.2 206.332H1544.7C1546.23 200.605 1548.26 194.167 1550.53 187.089L1571.3 126.266H1605.24L1559.89 245.351H1529.51Z" fill="#6D4AFF"/>
<path d="M1722.79 196.697H1632.88C1634.29 203.909 1638.16 210.408 1643.83 215.086C1649.47 219.478 1656.46 221.767 1663.61 221.559C1669.32 221.768 1675.02 220.774 1680.32 218.643C1684.49 216.628 1687.9 213.339 1690.07 209.253H1719.7C1716.61 221.092 1709.2 231.346 1698.93 237.992C1688.59 244.675 1676.52 248.152 1664.21 247.987C1652.93 248.223 1641.79 245.475 1631.91 240.02C1622.69 234.857 1615.12 227.17 1610.11 217.86C1604.88 208.011 1602.23 196.999 1602.39 185.848C1602.21 174.678 1604.92 163.651 1610.25 153.836C1615.29 144.559 1622.84 136.882 1632.02 131.676C1641.65 126.33 1652.53 123.641 1663.54 123.886C1674.3 123.743 1684.91 126.547 1694.2 131.996C1703.23 137.322 1710.61 145.04 1715.54 154.298C1720.77 164.022 1723.43 174.916 1723.29 185.955C1723.33 189.542 1723.16 193.128 1722.79 196.697ZM1643.51 156.93C1638.05 161.404 1634.23 167.557 1632.63 174.43H1693.09C1692.17 167.647 1688.68 161.475 1683.35 157.179C1677.75 152.595 1670.7 150.171 1663.46 150.35C1656.25 150.134 1649.18 152.463 1643.51 156.93Z" fill="#6D4AFF"/>
<path d="M543.817 72.125H464V245.027H495.585V202.13C495.585 200.053 495.995 197.997 496.791 196.079C497.587 194.16 498.753 192.418 500.224 190.951C501.694 189.484 503.439 188.321 505.359 187.53C507.279 186.738 509.337 186.333 511.414 186.338H543.817C558.911 186.338 573.386 180.342 584.059 169.669C594.732 158.996 600.728 144.521 600.728 129.427C600.78 121.92 599.346 114.478 596.509 107.528C593.672 100.578 589.488 94.258 584.198 88.9318C578.908 83.6057 572.617 79.3787 565.687 76.4942C558.756 73.6097 551.324 72.1248 543.817 72.125ZM568.716 129.036C568.687 136.18 565.825 143.021 560.756 148.057C555.687 153.092 548.828 155.909 541.683 155.89H495.621V101.861H541.683C545.227 101.861 548.736 102.559 552.009 103.917C555.282 105.274 558.256 107.263 560.76 109.77C563.264 112.278 565.25 115.254 566.602 118.529C567.955 121.804 568.649 125.314 568.645 128.858L568.716 129.036Z" fill="#1B1340"/>
<path d="M605.709 245.035V176.457C605.709 148.464 622.071 126.163 654.759 126.163C660.005 126.085 665.239 126.67 670.338 127.906V156.147C666.781 155.898 663.438 155.898 661.944 155.898C644.586 155.898 637.045 163.795 637.045 179.908V245.035H605.709Z" fill="#1B1340"/>
<path d="M679.906 186.841C679.906 152.41 705.907 126.16 742.081 126.16C778.255 126.16 804.078 152.339 804.078 186.841C804.078 221.343 778.077 247.771 741.938 247.771C705.8 247.771 679.906 221.272 679.906 186.841ZM773.275 186.841C773.275 167.278 760.15 153.406 742.081 153.406C724.012 153.406 710.851 167.278 710.851 186.841C710.851 206.404 723.976 220.276 742.081 220.276C760.185 220.276 773.133 206.653 773.133 186.841H773.275Z" fill="#1B1340"/>
<path d="M895.207 153.653H861.309V196.976C861.309 212.093 866.787 219.029 882.366 219.029C883.86 219.029 887.559 219.029 892.29 218.78V244.283C886.326 246.029 880.15 246.95 873.936 247.022C847.686 247.022 829.866 231.158 829.866 201.209V153.653H808.809V128.754H814.073C818.262 128.754 822.279 127.09 825.241 124.129C828.202 121.167 829.866 117.15 829.866 112.962V89.2725H861.309V128.648H895.242L895.207 153.653Z" fill="#1B1340"/>
<path d="M904.633 186.841C904.633 152.41 930.634 126.16 966.772 126.16C1002.91 126.16 1028.95 152.339 1028.95 186.841C1028.95 221.343 1002.95 247.771 966.772 247.771C930.598 247.771 904.633 221.272 904.633 186.841ZM998.002 186.841C998.002 167.278 984.841 153.406 966.772 153.406C948.703 153.406 935.578 167.278 935.578 186.841C935.578 206.404 948.703 220.276 966.772 220.276C984.841 220.276 998.002 206.653 998.002 186.841Z" fill="#1B1340"/>
<path d="M1045.27 245.032V178.909C1045.27 148.213 1064.84 126.16 1099.77 126.16C1134.69 126.16 1154.01 148.213 1154.01 178.909V245.032H1122.81V181.399C1122.81 164.29 1115.13 153.655 1099.77 153.655C1084.4 153.655 1076.75 164.326 1076.75 181.399V245.032H1045.27Z" fill="#1B1340"/>
<defs>
<linearGradient id="paint0_linear_5565_134599" x1="174.25" y1="-131.77" x2="201.22" y2="247.775" gradientUnits="userSpaceOnUse">
<stop offset="0.988738" stop-color="#6D4AFF"/>
</linearGradient>
<radialGradient id="paint1_radial_5565_134599" cx="0" cy="0" r="1" gradientUnits="userSpaceOnUse" gradientTransform="translate(285.589 -112.247) rotate(116.076) scale(501.829 780.735)">
<stop offset="0.556057" stop-color="#FF62C0" stop-opacity="0"/>
<stop offset="0.994421" stop-color="#FF62C0"/>
</radialGradient>
<linearGradient id="paint2_linear_5565_134599" x1="-117" y1="-34" x2="318" y2="444" gradientUnits="userSpaceOnUse">
<stop stop-color="#6D4AFF"/>
<stop offset="0.35934" stop-color="#AE8CFF"/>
<stop offset="1" stop-color="#F8CCFF"/>
</linearGradient>
</defs>
</svg>
