<svg width="1646" height="322" viewBox="0 0 1646 322" fill="none" xmlns="http://www.w3.org/2000/svg">
<g clip-path="url(#clip0_5565_134585)">
<path fill-rule="evenodd" clip-rule="evenodd" d="M138.637 303.72C151.737 327.455 185.38 328.741 200.253 306.075L338.939 94.7265C353.646 72.3137 339.575 42.2644 312.942 39.2104L40.3508 7.95231C11.2886 4.61973 -9.40398 35.5034 4.73167 61.114L138.637 303.72Z" fill="url(#paint0_linear_5565_134585)"/>
<path fill-rule="evenodd" clip-rule="evenodd" d="M138.637 303.72C151.737 327.455 185.38 328.741 200.253 306.075L338.939 94.7265C353.646 72.3137 339.575 42.2644 312.942 39.2104L40.3508 7.95231C11.2886 4.61973 -9.40398 35.5034 4.73167 61.114L138.637 303.72Z" fill="url(#paint1_linear_5565_134585)"/>
<path d="M158.756 263.083L146.447 281.584C141.46 289.081 130.301 288.619 125.95 280.736L138.637 303.722C140.899 307.821 143.774 311.25 147.059 314.002L147.06 314C162.797 327.184 187.949 324.825 200.254 306.073L338.94 94.7257C353.647 72.3126 339.575 42.2638 312.942 39.21L40.3513 7.95125C11.289 4.61922 -9.40349 35.503 4.73216 61.1134L5.8081 63.0626L237.83 89.9085C252.619 91.6197 260.421 108.313 252.247 120.756L158.756 263.083Z" fill="url(#paint2_linear_5565_134585)"/>
<path d="M1427.96 73H1348V246.219H1379.68V203.101C1379.68 198.905 1381.35 194.881 1384.31 191.913C1387.28 188.946 1391.3 187.279 1395.5 187.279H1427.96C1443.08 187.279 1457.59 181.272 1468.28 170.58C1478.97 159.888 1484.98 145.386 1484.98 130.264C1485.01 122.756 1483.56 115.315 1480.71 108.369C1477.86 101.423 1473.67 95.1082 1468.37 89.7874C1463.07 84.4666 1456.77 80.2446 1449.84 77.3637C1442.91 74.4829 1435.47 72.9999 1427.96 73V73ZM1452.91 129.837C1452.91 133.387 1452.21 136.902 1450.85 140.182C1449.49 143.461 1447.5 146.44 1444.98 148.949C1442.47 151.458 1439.49 153.446 1436.21 154.802C1432.93 156.157 1429.41 156.852 1425.86 156.848H1379.54V102.862H1425.86C1429.42 102.862 1432.94 103.565 1436.23 104.931C1439.52 106.298 1442.5 108.3 1445.01 110.823C1447.52 113.347 1449.51 116.341 1450.86 119.635C1452.21 122.928 1452.89 126.456 1452.87 130.015L1452.91 129.837Z" fill="#6D4AFF"/>
<path d="M1236.73 245.576L1172.9 72.5H1208.97L1250.94 196.365C1252.58 200.796 1253.78 205.38 1254.51 210.049H1254.86C1255.38 205.339 1256.58 200.73 1258.43 196.365L1300.55 72.5H1336.82L1272.68 245.576H1236.73Z" fill="#6D4AFF"/>
<path d="M1496.8 245.576V72.5H1524.56L1606.3 179.866C1609.24 183.565 1611.8 187.553 1613.93 191.768H1614.43C1613.88 186.548 1613.62 181.302 1613.64 176.053V72.5H1646.39V245.576H1618.63L1536.67 138.21C1533.78 134.485 1531.24 130.5 1529.08 126.308H1528.8C1529.24 131.534 1529.42 136.779 1529.33 142.023V245.576H1496.8Z" fill="#6D4AFF"/>
<path d="M541.963 72H462V245.219H493.679V202.101C493.679 197.905 495.346 193.881 498.313 190.913C501.28 187.946 505.304 186.279 509.501 186.279H541.963C557.085 186.279 571.587 180.272 582.279 169.58C592.971 158.888 598.978 144.386 598.978 129.264C599.011 121.756 597.561 114.315 594.71 107.369C591.86 100.423 587.665 94.1082 582.368 88.7874C577.07 83.4666 570.774 79.2446 563.84 76.3637C556.906 73.4829 549.472 71.9999 541.963 72V72ZM566.907 128.837C566.907 132.387 566.208 135.902 564.848 139.182C563.488 142.461 561.496 145.44 558.984 147.949C556.472 150.458 553.49 152.446 550.209 153.802C546.927 155.157 543.411 155.852 539.861 155.848H493.536V101.862H539.861C543.42 101.862 546.944 102.565 550.231 103.931C553.517 105.298 556.501 107.3 559.011 109.823C561.521 112.347 563.508 115.341 564.857 118.635C566.206 121.928 566.891 125.456 566.872 129.015L566.907 128.837Z" fill="#1B1340"/>
<path d="M603.966 245.29V176.551C603.966 148.507 620.358 126.2 653.106 126.2C658.372 126.113 663.627 126.687 668.75 127.911V156.204C665.008 155.955 661.623 155.955 660.304 155.955C642.95 155.955 635.36 163.901 635.36 180.008V245.29H603.966Z" fill="#1B1340"/>
<path d="M678.158 186.96C678.158 152.501 704.206 126.203 740.447 126.203C776.687 126.203 802.7 152.501 802.7 186.96C802.7 221.418 776.651 248.001 740.447 248.001C704.242 248.001 678.158 221.454 678.158 186.96ZM771.698 186.96C771.698 167.361 758.549 153.463 740.447 153.463C722.344 153.463 709.16 167.361 709.16 186.96C709.16 206.559 722.309 220.456 740.447 220.456C758.584 220.456 771.698 206.808 771.698 186.96V186.96Z" fill="#1B1340"/>
<path d="M893.995 153.709H860.035V197.147C860.035 212.292 865.487 219.205 881.095 219.205C882.592 219.205 886.333 219.205 891.037 218.956V244.541C885.068 246.259 878.896 247.17 872.685 247.249C846.387 247.249 828.499 231.392 828.499 201.352V153.709H807.439V128.765H812.677C816.873 128.765 820.898 127.098 823.865 124.131C826.832 121.164 828.499 117.14 828.499 112.943V89.2109H860.035V128.658H893.995V153.709Z" fill="#1B1340"/>
<path d="M903.437 186.96C903.437 152.501 929.486 126.203 965.69 126.203C1001.89 126.203 1027.98 152.501 1027.98 186.96C1027.98 221.418 1001.93 248.001 965.69 248.001C929.45 248.001 903.437 221.454 903.437 186.96ZM996.977 186.96C996.977 167.361 983.828 153.463 965.69 153.463C947.552 153.463 934.439 167.361 934.439 186.96C934.439 206.559 947.588 220.456 965.69 220.456C983.793 220.456 996.977 206.808 996.977 186.96Z" fill="#1B1340"/>
<path d="M1044.34 245.291V178.904C1044.34 148.116 1063.94 126.059 1098.93 126.059C1133.92 126.059 1153.27 148.259 1153.27 178.904V245.149H1122.02V181.506C1122.02 164.401 1114.32 153.711 1098.93 153.711C1083.53 153.711 1075.87 164.401 1075.87 181.506V245.291H1044.34Z" fill="#1B1340"/>
</g>
<defs>
<linearGradient id="paint0_linear_5565_134585" x1="189.571" y1="-182.981" x2="201.3" y2="215.785" gradientUnits="userSpaceOnUse">
<stop offset="0.988738" stop-color="#6D4AFF"/>
</linearGradient>
<linearGradient id="paint1_linear_5565_134585" x1="191.864" y1="-127.777" x2="94.3985" y2="291.86" gradientUnits="userSpaceOnUse">
<stop offset="0.47989" stop-color="#24ECC6" stop-opacity="0"/>
<stop offset="0.994421" stop-color="#24ECC6"/>
</linearGradient>
<linearGradient id="paint2_linear_5565_134585" x1="224.102" y1="337.838" x2="8.001" y2="-31.7167" gradientUnits="userSpaceOnUse">
<stop offset="0.0660125" stop-color="#ABFFEF"/>
<stop offset="0.44988" stop-color="#CAC9FF"/>
<stop offset="1" stop-color="#6D4AFF"/>
</linearGradient>
<clipPath id="clip0_5565_134585">
<rect width="1646" height="322" fill="white"/>
</clipPath>
</defs>
</svg>
