<svg width="1646" height="322" viewBox="0 0 1646 322" fill="none" xmlns="http://www.w3.org/2000/svg">
<path d="M0 31.0426C0 24.2663 7.89794 20.5589 13.111 24.8882L151 139.4C164.334 150.473 183.666 150.473 197 139.4L334.889 24.8882C340.102 20.5589 348 24.2663 348 31.0426V266C348 285.882 331.882 302 312 302H36C16.1177 302 0 285.882 0 266V31.0426Z" fill="#6D4AFF"/>
<path fill-rule="evenodd" clip-rule="evenodd" d="M220.981 119.484L221 119.5L151.558 180.841C139.728 191.29 122.046 191.554 109.911 181.461L0 90.0532V31.0426C0 24.2663 7.89794 20.5589 13.111 24.8882L151 139.4C164.334 150.473 183.666 150.473 197 139.4L220.981 119.484Z" fill="url(#paint0_linear_5565_134616)"/>
<path fill-rule="evenodd" clip-rule="evenodd" d="M274 75.455V302H312C331.882 302 348 285.881 348 266V31.0428C348 24.2665 340.102 20.5585 334.889 24.8886L274 75.455Z" fill="url(#paint1_linear_5565_134616)"/>
<path d="M1207.68 245.251V72.5894H1252.49L1294.5 176.123C1298.23 184.788 1301.45 193.665 1304.14 202.708H1304.56C1307.26 193.67 1310.48 184.794 1314.19 176.123L1356.2 72.5894H1401.02V245.251H1368.54V129.563C1368.5 125.753 1368.68 121.944 1369.07 118.154H1368.54C1367.54 122.235 1366.19 126.22 1364.49 130.06L1317.93 243.225H1291.09L1244.39 130.06C1242.71 126.185 1241.27 122.209 1240.09 118.154H1239.59C1239.95 121.946 1240.12 125.754 1240.09 129.563V245.251H1207.68Z" fill="#6D4AFF"/>
<path d="M1512.13 131.34C1521.54 136.275 1529.31 143.83 1534.52 153.092C1540.1 163.15 1542.92 174.504 1542.69 186.003V245.252H1514.26L1512.23 227.481C1508.53 233.923 1503.08 239.194 1496.52 242.692C1489.5 246.346 1481.66 248.167 1473.74 247.988C1463.63 248.09 1453.69 245.383 1445.02 240.169C1436.26 234.847 1429.12 227.226 1424.37 218.133C1419.2 208.126 1416.59 196.985 1416.8 185.719C1416.66 174.631 1419.5 163.707 1425.01 154.087C1430.41 144.736 1438.25 137.032 1447.69 131.802C1457.47 126.369 1468.49 123.576 1479.68 123.699C1490.96 123.503 1502.12 126.13 1512.13 131.34ZM1501.71 211.06C1507.9 205.16 1510.95 196.844 1510.95 185.755C1511.34 176.692 1508.17 167.837 1502.1 161.089C1499.22 158.073 1495.75 155.673 1491.91 154.033C1488.07 152.393 1483.94 151.548 1479.77 151.548C1475.59 151.548 1471.46 152.393 1467.62 154.033C1463.78 155.673 1460.32 158.073 1457.43 161.089C1451.66 168.001 1448.51 176.718 1448.51 185.719C1448.51 194.72 1451.66 203.437 1457.43 210.349C1460.27 213.43 1463.74 215.87 1467.6 217.506C1471.46 219.142 1475.63 219.937 1479.82 219.839C1483.87 219.907 1487.89 219.165 1491.65 217.658C1495.41 216.15 1498.83 213.907 1501.71 211.06Z" fill="#6D4AFF"/>
<path d="M1560.21 101.592C1558.3 99.8454 1556.78 97.7135 1555.75 95.3366C1554.72 92.9597 1554.21 90.3917 1554.24 87.8018C1554.21 85.192 1554.73 82.6049 1555.76 80.206C1556.79 77.807 1558.3 75.6489 1560.21 73.8695C1563.99 70.1104 1569.1 68 1574.43 68C1579.76 68 1584.87 70.1104 1588.65 73.8695C1590.54 75.656 1592.05 77.8163 1593.07 80.2142C1594.1 82.6121 1594.61 85.1956 1594.58 87.8018C1594.62 90.3881 1594.1 92.9524 1593.08 95.3281C1592.06 97.7039 1590.55 99.838 1588.65 101.592C1584.83 105.267 1579.73 107.32 1574.43 107.32C1569.13 107.32 1564.03 105.267 1560.21 101.592ZM1590.46 245.252H1558.47V126.258H1590.46V245.252Z" fill="#6D4AFF"/>
<path d="M1645.76 245.251H1613.78V72.5894H1645.76V245.251Z" fill="#6D4AFF"/>
<path d="M543.756 72.1606H464V244.929H495.597V202.066C495.597 197.881 497.259 193.867 500.219 190.907C503.178 187.948 507.192 186.285 511.377 186.285H543.756C558.838 186.285 573.302 180.294 583.967 169.629C594.631 158.965 600.622 144.5 600.622 129.418C600.674 121.918 599.241 114.481 596.406 107.536C593.572 100.592 589.391 94.2766 584.105 88.9545C578.82 83.6325 572.533 79.4087 565.608 76.5265C558.683 73.6442 551.257 72.1605 543.756 72.1606ZM568.635 129.027C568.607 136.166 565.746 143.002 560.681 148.034C555.617 153.065 548.762 155.88 541.623 155.861H495.419V101.874H541.623C545.166 101.874 548.674 102.571 551.947 103.927C555.219 105.283 558.193 107.27 560.698 109.775C563.203 112.28 565.19 115.253 566.546 118.526C567.902 121.799 568.599 125.307 568.599 128.85L568.635 129.027Z" fill="#1B1340"/>
<path d="M605.598 244.931V176.407C605.598 148.435 621.947 126.151 654.61 126.151C659.863 126.075 665.105 126.66 670.213 127.892V156.112C666.481 155.863 663.104 155.863 661.789 155.863C644.48 155.863 636.91 163.754 636.91 179.854V244.931H605.598Z" fill="#1B1340"/>
<path d="M679.597 186.786C679.597 152.381 705.578 126.151 741.724 126.151C777.87 126.151 803.815 152.31 803.815 186.786C803.815 221.261 777.834 247.669 741.724 247.669C705.614 247.669 679.597 221.19 679.597 186.786ZM772.894 186.786C772.894 167.238 759.779 153.376 741.724 153.376C723.669 153.376 710.518 167.238 710.518 186.786C710.518 206.334 723.633 220.195 741.724 220.195C759.815 220.195 772.894 206.582 772.894 186.786Z" fill="#1B1340"/>
<path d="M894.873 153.624H861.002V196.913C861.002 212.019 866.44 218.949 882.007 218.949C883.5 218.949 887.232 218.949 891.923 218.701V244.184C885.975 245.926 879.817 246.847 873.619 246.921C847.39 246.921 829.548 231.069 829.548 201.143V153.624H808.542V128.744H813.767C817.952 128.744 821.966 127.082 824.926 124.122C827.885 121.163 829.548 117.149 829.548 112.964V89.293H861.002V128.638H894.873V153.624Z" fill="#1B1340"/>
<path d="M904.291 186.786C904.291 152.381 930.272 126.151 966.383 126.151C1002.49 126.151 1028.51 152.31 1028.51 186.786C1028.51 221.261 1002.53 247.669 966.383 247.669C930.237 247.669 904.291 221.19 904.291 186.786ZM997.588 186.786C997.588 167.238 984.473 153.376 966.383 153.376C948.292 153.376 935.212 167.238 935.212 186.786C935.212 206.334 948.327 220.195 966.383 220.195C984.438 220.195 997.588 206.582 997.588 186.786Z" fill="#1B1340"/>
<path d="M1044.82 244.932V178.86C1044.82 148.187 1064.37 126.151 1099.27 126.151C1134.18 126.151 1153.48 148.187 1153.48 178.86V244.932H1122.31V181.348C1122.31 164.252 1114.63 153.625 1099.27 153.625C1083.92 153.625 1076.28 164.288 1076.28 181.348V244.932H1044.82Z" fill="#1B1340"/>
<defs>
<linearGradient id="paint0_linear_5565_134616" x1="262.5" y1="159.5" x2="183.177" y2="-179.141" gradientUnits="userSpaceOnUse">
<stop stop-color="#E2DBFF"/>
<stop offset="1" stop-color="#6D4AFF"/>
</linearGradient>
<linearGradient id="paint1_linear_5565_134616" x1="454" y1="485.5" x2="183.302" y2="-92.7689" gradientUnits="userSpaceOnUse">
<stop offset="0.271019" stop-color="#E2DBFF"/>
<stop offset="1" stop-color="#6D4AFF"/>
</linearGradient>
</defs>
</svg>
