<svg width="120" height="70" viewBox="0 0 70 41" fill="none" xmlns="http://www.w3.org/2000/svg">
<path d="M0.436768 0.393188H69.3626V40.8759H0.436768V0.393188Z" fill="white"/>
<path d="M1.76172 1.50256H68.0352V39.7079H1.76172V1.50256Z" fill="#034EA2"/>
<path d="M37.1724 7.51819H35.4221L34.8846 6.07336L34.3494 7.51819H32.5991L34.0199 8.39922L33.4871 9.82788L34.8846 8.94482L36.2844 9.82788L35.7516 8.39922L37.1724 7.51819Z" fill="#FFF100"/>
<path d="M29.935 9.19938H28.1824L27.6472 7.75256L27.1121 9.19938H25.3618L26.7803 10.0804L26.2498 11.509L27.6472 10.626L29.0447 11.509L28.5142 10.0804L29.935 9.19938Z" fill="#FFF100"/>
<path d="M20.9544 16.098L22.3519 15.215L23.7516 16.098L23.2188 14.6694L24.6396 13.7884H22.8893L22.3519 12.3416L21.8167 13.7884H20.0664L21.4872 14.6694L20.9544 16.098Z" fill="#FFF100"/>
<path d="M20.9451 20.0384L20.41 18.5916L19.8748 20.0404L18.1245 20.0384L19.543 20.9195L19.0125 22.3481L20.41 21.4651L21.8074 22.3481L21.2769 20.9195L22.6954 20.0384H20.9451Z" fill="#FFF100"/>
<path d="M21.4872 27.1897L20.9544 28.6163L22.3519 27.7313L23.7516 28.6163L23.2188 27.1897L24.6396 26.3067H22.8893L22.3519 24.8599L21.8167 26.3087L20.0664 26.3067L21.4872 27.1897Z" fill="#FFF100"/>
<path d="M26.792 31.7767L26.2615 33.2032L27.659 32.3222L29.0564 33.2032L28.526 31.7767L29.9444 30.8936H28.1941L27.659 29.4489L27.1238 30.8956L25.3735 30.8936L26.792 31.7767Z" fill="#FFF100"/>
<path d="M34.0198 33.4397L33.4893 34.8663L34.8867 33.9833L36.2842 34.8663L35.7514 33.4397L37.1722 32.5567H35.4219L34.8867 31.1099L34.3516 32.5587L32.6013 32.5567L34.0198 33.4397Z" fill="#FFF100"/>
<path d="M41.2478 31.7767L40.7174 33.2032L42.1148 32.3222L43.5123 33.2032L42.9795 31.7767L44.4003 30.8936H42.65L42.1148 29.4489L41.5773 30.8956L39.8293 30.8936L41.2478 31.7767Z" fill="#FFF100"/>
<path d="M46.5549 27.1897L46.022 28.6163L47.4195 27.7313L48.8193 28.6163L48.2865 27.1897L49.705 26.3067H47.957L47.4195 24.8599L46.8844 26.3087L45.134 26.3067L46.5549 27.1897Z" fill="#FFF100"/>
<path d="M47.0549 20.0202L48.4757 20.9033L47.9453 22.33L49.3404 21.4469L50.7402 22.33L50.2074 20.9033L51.6282 20.0202H49.8779L49.3404 18.5734L48.8052 20.0222L47.0549 20.0202Z" fill="#FFF100"/>
<path d="M49.705 13.7702H47.957L47.4195 12.3254L46.8844 13.7723L45.134 13.7702L46.5549 14.6513L46.022 16.0779L47.4195 15.1969L48.8193 16.0779L48.2865 14.6513L49.705 13.7702Z" fill="#FFF100"/>
<path d="M40.7359 11.509L42.1357 10.626L43.5331 11.509L43.0027 10.0824L44.4235 9.19941H42.6708L42.1357 7.75464L41.6005 9.20143L39.8479 9.19941L41.2687 10.0824L40.7359 11.509Z" fill="#FFF100"/>
</svg>
