<svg width="2178" height="315" viewBox="0 0 2178 315" fill="none" xmlns="http://www.w3.org/2000/svg"><g clip-path="url(#clip0_8605_191048)" fill="#1B1340"><path d="M142.393 244.18v-68.318c0-27.873 16.331-50.071 48.997-50.071a62.913 62.913 0 0115.574 1.725v28.105c-3.712-.245-6.922-.245-8.41-.245-17.304 0-24.745 7.891-24.745 23.922v64.882h-31.416zM216.368 186.236c0-34.284 25.982-60.427 62.113-60.427s62.105 26.126 62.105 60.427c0 34.302-25.982 60.656-62.109 60.656s-62.109-26.389-62.109-60.656zm93.291 0c0-19.485-13.116-33.297-31.178-33.297-18.061 0-31.182 13.799-31.182 33.297 0 19.732 13.117 33.297 31.182 33.297 18.066 0 31.174-13.583 31.174-33.297h.004zM431.645 153.168h-33.899v43.163c0 15.044 5.442 21.952 21.033 21.952 1.484 0 5.192 0 9.898-.246v25.406c-6.433 1.725-12.113 2.712-18.312 2.712-26.229 0-44.048-15.786-44.048-45.629v-47.358h-21.033v-24.91h5.243c2.075 0 4.13-.408 6.047-1.2a15.787 15.787 0 005.125-3.416 15.725 15.725 0 004.618-11.14V89.041h31.429v39.217h33.899v24.91zM441.045 186.236c0-34.284 25.983-60.427 62.114-60.427s62.109 26.126 62.109 60.427c0 34.302-25.983 60.673-62.109 60.673-36.127 0-62.114-26.406-62.114-60.673zm93.287 0c0-19.486-13.116-33.297-31.178-33.297-18.061 0-31.182 13.799-31.182 33.297 0 19.732 13.117 33.297 31.182 33.297 18.066 0 31.178-13.583 31.178-33.297zM581.599 244.18v-65.852c0-30.584 19.549-52.536 54.438-52.536 34.643 0 54.193 21.952 54.193 52.536v65.852h-31.178v-63.385c0-17.015-7.674-27.623-23.015-27.623-15.34 0-23.014 10.608-23.014 27.623v63.385h-31.424zM.499 199.332v44.844h31.58v-42.904c0-4.174 1.664-8.177 4.625-11.129a15.819 15.819 0 0111.165-4.61h32.38a57.059 57.059 0 0040.271-16.636 56.689 56.689 0 0016.682-40.143 56.69 56.69 0 00-16.683-40.15A57.065 57.065 0 0080.241 71.97H.499v56.055h31.58v-26.428h46.033a27 27 0 0119.058 7.867 26.818 26.818 0 017.898 18.992c0 7.126-2.84 13.96-7.895 18.999a27.003 27.003 0 01-19.06 7.869H44.645a44.26 44.26 0 00-16.899 3.344 44.14 44.14 0 00-14.325 9.539 43.98 43.98 0 00-9.57 14.281A43.854 43.854 0 00.5 199.332zM791.768 245.226V128.571h69.478v14.753h-53.353v36.712h50.951v14.754h-50.951v50.436h-16.125zM937.16 234.933c-7.892 8.005-17.727 12.008-29.507 12.008-11.78 0-21.673-4.003-29.678-12.008-7.892-8.12-11.837-18.07-11.837-29.85 0-11.78 3.945-21.673 11.837-29.679 8.005-8.12 17.898-12.18 29.678-12.18 11.78 0 21.615 4.06 29.507 12.18 8.005 8.006 12.008 17.899 12.008 29.679 0 11.78-4.003 21.73-12.008 29.85zm-48.035-49.579c-4.803 5.147-7.205 11.723-7.205 19.729 0 8.005 2.402 14.582 7.205 19.728 4.918 5.147 11.094 7.72 18.528 7.72 7.434 0 13.552-2.573 18.356-7.72 4.918-5.146 7.377-11.723 7.377-19.728 0-8.006-2.459-14.582-7.377-19.729-4.804-5.146-10.922-7.719-18.356-7.719-7.434 0-13.61 2.573-18.528 7.719zM964.598 194.447c0-9.722 2.745-17.327 8.235-22.817 5.49-5.604 12.695-8.406 21.615-8.406 2.859 0 5.772.401 8.752 1.201v14.41c-1.03-.114-3.09-.171-6.178-.171-5.376 0-9.493 1.487-12.352 4.46-2.859 2.974-4.289 8.006-4.289 15.097v47.005h-15.783v-50.779zM1059.98 245.226V128.571h36.37c13.15 0 22.88 2.859 29.17 8.578 6.4 5.718 9.6 13.552 9.6 23.502 0 6.519-1.94 11.951-5.83 16.297-3.77 4.346-8.23 6.977-13.38 7.892v.343c7.2.915 13.15 3.66 17.84 8.234 4.8 4.575 7.21 10.636 7.21 18.185 0 10.407-3.49 18.642-10.47 24.703-6.98 5.947-17.1 8.921-30.36 8.921h-40.15zm16.13-14.754h22.82c17.04 0 25.56-6.29 25.56-18.87 0-6.405-2.41-11.151-7.21-14.239-4.69-3.088-12.06-4.632-22.13-4.632h-19.04v37.741zm0-52.494h19.04c8.24 0 14.18-1.373 17.84-4.118 3.78-2.744 5.66-7.147 5.66-13.209 0-11.551-7.83-17.327-23.5-17.327h-19.04v34.654zM1215.77 237.334c-6.18 6.405-14.47 9.607-24.88 9.607-10.4 0-18.69-3.202-24.87-9.607-6.18-6.404-9.26-14.696-9.26-24.875V164.94h15.78v46.319c0 6.633 1.54 11.779 4.63 15.439s7.66 5.49 13.72 5.49c6.07 0 10.64-1.83 13.73-5.49s4.63-8.806 4.63-15.439V164.94h15.78v47.519c0 10.179-3.09 18.471-9.26 24.875zM1273.51 246.941c-8.92 0-16.3-2.402-22.13-7.205-5.72-4.803-8.81-11.265-9.26-19.385h15.78c.46 4.003 2.11 7.205 4.97 9.607 2.98 2.401 6.52 3.602 10.64 3.602 4.23 0 7.49-.915 9.78-2.745 2.29-1.829 3.43-4.06 3.43-6.69 0-3.088-1.49-5.547-4.46-7.377-2.97-1.944-6.58-3.488-10.81-4.632a144.537 144.537 0 01-12.52-4.117c-4.12-1.601-7.66-4.174-10.64-7.72-2.97-3.545-4.46-8.063-4.46-13.552 0-6.29 2.46-11.78 7.38-16.469 4.92-4.689 11.72-7.034 20.41-7.034 8.24 0 14.98 2.23 20.25 6.691 5.26 4.46 8.29 10.693 9.09 18.699h-15.79c-1.25-8.006-5.77-12.009-13.55-12.009-3.43 0-6.29.915-8.58 2.745-2.28 1.83-3.43 4.289-3.43 7.377s1.49 5.547 4.46 7.377c2.98 1.829 6.52 3.316 10.64 4.46a122.61 122.61 0 0112.52 4.117c4.24 1.487 7.84 4.06 10.81 7.72 2.97 3.545 4.46 8.12 4.46 13.724 0 6.633-2.74 12.123-8.23 16.469-5.49 4.231-12.41 6.347-20.76 6.347zM1317.76 245.226V164.94h15.78v80.286h-15.78zm.51-98.642c-1.94-1.944-2.92-4.346-2.92-7.205s.98-5.261 2.92-7.205c2.06-2.059 4.52-3.088 7.38-3.088 2.86 0 5.26 1.029 7.2 3.088 2.06 1.944 3.09 4.346 3.09 7.205s-1.03 5.261-3.09 7.205c-1.94 1.944-4.34 2.916-7.2 2.916-2.86 0-5.32-.972-7.38-2.916zM1354.27 197.706c0-10.179 3.15-18.47 9.44-24.875 6.29-6.404 14.75-9.607 25.39-9.607 10.63 0 19.1 3.203 25.39 9.607 6.29 6.405 9.43 14.696 9.43 24.875v47.52h-15.78v-46.319c0-6.748-1.6-11.951-4.8-15.611-3.2-3.774-7.95-5.661-14.24-5.661s-11.04 1.887-14.24 5.661c-3.2 3.66-4.8 8.863-4.8 15.611v46.319h-15.79v-47.52zM1479.91 246.941c-11.78 0-21.5-3.888-29.16-11.665-7.55-7.777-11.32-17.842-11.32-30.193 0-12.352 3.77-22.416 11.32-30.193 7.55-7.777 17.27-11.666 29.16-11.666 10.64 0 19.67 4.06 27.11 12.18 7.55 8.006 11.32 17.899 11.32 29.679 0 2.516-.11 4.574-.34 6.176h-62.28c1.15 6.519 3.89 11.722 8.24 15.611 4.46 3.774 9.78 5.661 15.95 5.661 9.95 0 16.7-3.774 20.25-11.322h16.12c-2.4 7.777-6.92 14.01-13.55 18.699-6.52 4.689-14.13 7.033-22.82 7.033zm-24.02-48.72h46.15c-.57-5.604-2.91-10.408-7.03-14.411-4.12-4.117-9.15-6.175-15.1-6.175-6.17 0-11.43 1.887-15.78 5.661-4.23 3.66-6.98 8.635-8.24 14.925zM1561.66 246.941c-8.92 0-16.3-2.402-22.13-7.205-5.72-4.803-8.8-11.265-9.26-19.385h15.78c.46 4.003 2.12 7.205 4.98 9.607 2.97 2.401 6.51 3.602 10.63 3.602 4.23 0 7.49-.915 9.78-2.745 2.29-1.829 3.43-4.06 3.43-6.69 0-3.088-1.49-5.547-4.46-7.377-2.97-1.944-6.58-3.488-10.81-4.632a145.669 145.669 0 01-12.52-4.117c-4.12-1.601-7.66-4.174-10.64-7.72-2.97-3.545-4.46-8.063-4.46-13.552 0-6.29 2.46-11.78 7.38-16.469 4.92-4.689 11.72-7.034 20.41-7.034 8.24 0 14.99 2.23 20.25 6.691 5.26 4.46 8.29 10.693 9.09 18.699h-15.78c-1.26-8.006-5.78-12.009-13.56-12.009-3.43 0-6.29.915-8.57 2.745-2.29 1.83-3.43 4.289-3.43 7.377s1.48 5.547 4.46 7.377c2.97 1.829 6.52 3.316 10.63 4.46a123.6 123.6 0 0112.53 4.117c4.23 1.487 7.83 4.06 10.8 7.72 2.98 3.545 4.46 8.12 4.46 13.724 0 6.633-2.74 12.123-8.23 16.469-5.49 4.231-12.41 6.347-20.76 6.347zM1633.7 246.941c-8.92 0-16.3-2.402-22.13-7.205-5.72-4.803-8.81-11.265-9.26-19.385h15.78c.46 4.003 2.11 7.205 4.97 9.607 2.98 2.401 6.52 3.602 10.64 3.602 4.23 0 7.49-.915 9.78-2.745 2.29-1.829 3.43-4.06 3.43-6.69 0-3.088-1.49-5.547-4.46-7.377-2.98-1.944-6.58-3.488-10.81-4.632a144.537 144.537 0 01-12.52-4.117c-4.12-1.601-7.67-4.174-10.64-7.72-2.97-3.545-4.46-8.063-4.46-13.552 0-6.29 2.46-11.78 7.38-16.469 4.92-4.689 11.72-7.034 20.41-7.034 8.24 0 14.98 2.23 20.25 6.691 5.26 4.46 8.29 10.693 9.09 18.699h-15.79c-1.25-8.006-5.77-12.009-13.55-12.009-3.43 0-6.29.915-8.58 2.745-2.28 1.83-3.43 4.289-3.43 7.377s1.49 5.547 4.46 7.377c2.98 1.829 6.52 3.316 10.64 4.46a122.61 122.61 0 0112.52 4.117c4.24 1.487 7.84 4.06 10.81 7.72 2.97 3.545 4.46 8.12 4.46 13.724 0 6.633-2.74 12.123-8.23 16.469-5.49 4.231-12.41 6.347-20.76 6.347z"/></g><defs><clipPath id="clip0_8605_191048"><path fill="#fff" transform="translate(0 72)" d="M0 0h1662.62v174.941H0z"/></clipPath></defs></svg>